<svg width="169" height="50" viewBox="0 0 169 50" fill="none" xmlns="http://www.w3.org/2000/svg">
<g clip-path="url(#clip0_7134_30166)">
<path d="M63.3245 32.8184C61.5001 34.4929 59.2653 35.3334 56.62 35.3334C53.9747 35.3334 51.7334 34.4994 49.9155 32.8379C48.0912 31.1765 47.1855 29.0068 47.1855 26.3355V12.9917H51.8702V26.1335C51.8702 27.5604 52.3263 28.7332 53.245 29.6453C54.1637 30.5575 55.2843 31.0201 56.6265 31.0201C57.9687 31.0201 59.0829 30.564 59.9885 29.6453C60.8942 28.7266 61.3437 27.5604 61.3437 26.1335V12.9917H66.061V26.3355C66.061 28.9873 65.1488 31.1439 63.3245 32.8184V32.8184Z" fill="white"/>
<path d="M70.4723 34.9946V12.9917H75.6652L81.4054 21.6443C81.868 22.3415 82.4087 23.1624 83.0342 24.0941C83.6597 25.0324 84.1614 25.7947 84.5523 26.3811L85.1713 27.3193V12.9917H89.9276V34.9946H84.9042L79.3921 26.759C78.7992 25.8794 78.1541 24.9086 77.4439 23.853C76.7403 22.7975 76.1799 21.9636 75.7629 21.3446L75.2221 20.4259V34.9946H70.4658H70.4723Z" fill="white"/>
<path d="M92.4746 34.9946L102 12.9917H106.77L116.041 34.9946H111.487L110.027 31.4957H98.8663L97.3612 34.9946H92.4746V34.9946ZM100.482 27.7624H108.477L106.763 23.6511L104.411 18.0152C103.636 20.2826 102.912 22.1851 102.228 23.7227L100.489 27.7624H100.482Z" fill="white"/>
<path d="M118.895 34.9946V12.9917H123.006L126.323 17.6829L130.441 23.5142L134.48 17.6763L137.842 12.9917H141.954V34.9946H137.197V21.1426C136.832 21.8658 136.129 22.9865 135.08 24.5046L130.408 31.3329L125.665 24.4785L123.645 21.325V35.0011H118.889L118.895 34.9946Z" fill="white"/>
<path d="M144.495 34.9946L154.021 12.9917H158.79L168.062 34.9946H163.507L162.048 31.4957H150.887L149.382 34.9946H144.495V34.9946ZM152.503 27.7624H160.497L158.784 23.6511L156.432 18.0152C155.656 20.2826 154.933 22.1851 154.249 23.7227L152.509 27.7624H152.503Z" fill="white"/>
<path d="M1.57715 9.76025V36.324C1.57715 37.3078 1.77913 38.2786 2.17658 39.1778C3.28421 41.6862 6.82865 43.3347 9.51955 43.8559C14.9405 44.8984 17.4489 45.7063 18.4849 47.2244C19.5274 45.7063 22.0358 44.8984 27.4502 43.8559C30.1411 43.3412 33.6856 41.6862 34.7932 39.1778C35.1907 38.2786 35.3926 37.3078 35.3926 36.324V9.76025H1.57715Z" fill="#427443"/>
<path d="M35.9265 1.049V36.324C35.9265 37.386 35.7115 38.4154 35.2815 39.3928C34.7342 40.6372 33.594 41.7839 31.9846 42.7222C30.675 43.4845 29.0592 44.0904 27.5541 44.3771C21.9768 45.4457 19.8006 46.2406 18.921 47.5241L18.4845 48.1561L18.048 47.5241C17.1684 46.2406 14.9857 45.4457 9.41491 44.3771C7.90983 44.0904 6.29398 43.4845 4.98436 42.7222C3.37503 41.7905 2.23482 40.6372 1.68752 39.3928C1.25749 38.4219 1.04248 37.3925 1.04248 36.324V1.049H10.4639V2.67787H13.7738V1.049H23.1952V2.67787H26.5051V1.049H35.9265ZM36.9755 0H25.4561V1.62888H24.2442V0H12.7313V1.62888H11.5194V0H0V36.324C0 37.5358 0.247589 38.7086 0.736252 39.8163C1.37477 41.2627 2.66484 42.5788 4.46312 43.6278C5.87047 44.4488 7.6036 45.0938 9.22596 45.4066C14.3537 46.3904 16.5103 47.1267 17.1944 48.117L17.631 48.749L18.4975 50.0065L19.3641 48.749L19.8006 48.117C20.4848 47.1267 22.6414 46.3904 27.7691 45.4066C29.3849 45.0938 31.1181 44.4488 32.5319 43.6278C34.3302 42.5788 35.6203 41.2627 36.2588 39.8163C36.7475 38.7086 36.9951 37.5358 36.9951 36.324V0H36.9755Z" fill="white"/>
<path d="M27.0332 1.57666V3.20554H22.6744V1.57666H14.3084V3.20554H9.94306V1.57666H1.57715V3.20554V9.38875H35.3992V3.20554V1.57666H27.0332Z" fill="#427443"/>
<path d="M4.37842 7.91605L3.12109 4.86719H3.67484L4.40448 6.6066L4.64552 7.29064C4.74324 6.98445 4.82793 6.75644 4.88657 6.6066L5.61621 4.86719H6.17647L4.91914 7.91605H4.38494H4.37842Z" fill="white"/>
<path d="M8.5293 7.90953V4.86719H10.8941V5.33624H9.07653V6.07891H10.7899V6.54145H9.07653V7.44048H10.9593V7.90953H8.5293V7.90953Z" fill="white"/>
<path d="M13.4225 7.90953V4.86719H14.6994C15.1294 4.86719 15.4616 4.97794 15.6961 5.19292C15.9307 5.4079 16.0414 5.68803 16.0414 6.0268C16.0414 6.23527 15.9893 6.43071 15.8786 6.61312C15.7678 6.79553 15.618 6.93233 15.416 7.02354L16.0805 7.90953H15.416L14.8883 7.17338C14.7971 7.17338 14.6343 7.17989 14.3997 7.17989H13.9632V7.90302H13.416L13.4225 7.90953ZM13.9698 6.71735H14.7385C14.9665 6.71735 15.1424 6.6522 15.2792 6.52191C15.416 6.39162 15.4812 6.22224 15.4812 6.0268C15.4812 5.83136 15.416 5.66198 15.2792 5.53168C15.1424 5.40139 14.9665 5.33624 14.745 5.33624H13.9763V6.71735H13.9698Z" fill="white"/>
<path d="M18.582 7.90953V4.86719H19.1293V7.91605H18.582V7.90953Z" fill="white"/>
<path d="M22.6091 7.90953V5.33624H21.5342V4.86719H24.2247V5.33624H23.1498V7.90953H22.6026H22.6091Z" fill="white"/>
<path d="M25.9453 7.9097L27.3199 4.86084H27.8346L29.2092 7.9097H28.6554L28.4209 7.38201H26.7401L26.4991 7.9097H25.9453ZM26.9355 6.95205H28.2254L27.8802 6.1768C27.8411 6.0856 27.7955 5.98136 27.7434 5.8641C27.6912 5.74032 27.6522 5.64911 27.6196 5.57094L27.574 5.45367C27.4697 5.7338 27.372 5.98136 27.2808 6.18332L26.929 6.95205H26.9355Z" fill="white"/>
<path d="M31.4111 7.51868L31.6196 7.10826C31.9128 7.3493 32.2515 7.46656 32.6294 7.46656C32.8053 7.46656 32.9616 7.42747 33.0919 7.3493C33.2222 7.27112 33.2874 7.16689 33.2874 7.03659C33.2874 6.9519 33.2548 6.87373 33.1831 6.8151C33.1115 6.75646 33.0398 6.71086 32.9681 6.69132C32.8965 6.67177 32.7922 6.6392 32.6554 6.60663C32.5186 6.57405 32.4079 6.54148 32.3232 6.51542C32.2385 6.48936 32.1343 6.45027 32.0235 6.39816C31.9128 6.34604 31.8281 6.29392 31.7629 6.22878C31.6978 6.17014 31.6391 6.09197 31.5935 6.00076C31.5479 5.90956 31.5284 5.79881 31.5284 5.68806C31.5284 5.42096 31.6391 5.20598 31.8541 5.05614C32.0691 4.9063 32.3297 4.82812 32.6359 4.82812C33.0333 4.82812 33.3916 4.93887 33.7173 5.16037L33.5089 5.57731C33.2418 5.40793 32.9551 5.32324 32.6424 5.32324C32.5642 5.32324 32.4861 5.33627 32.4079 5.35581C32.3297 5.37536 32.258 5.41444 32.1929 5.47308C32.1277 5.53171 32.0952 5.60337 32.0952 5.68806C32.0952 5.79881 32.1473 5.8835 32.245 5.93562C32.3492 5.99425 32.5121 6.04637 32.7336 6.09848C32.8965 6.1506 33.0333 6.1962 33.1571 6.23529C33.2808 6.27438 33.3981 6.3265 33.5154 6.39816C33.6326 6.46982 33.7173 6.55451 33.7825 6.66526C33.8411 6.77601 33.8737 6.89979 33.8737 7.03659C33.8737 7.33627 33.7499 7.56428 33.5089 7.72063C33.2613 7.87699 32.9747 7.96168 32.6424 7.96168C32.1473 7.96168 31.7369 7.81835 31.4242 7.52519L31.4111 7.51868Z" fill="white"/>
<path d="M31.4825 25.2084L28.7916 23.6511L30.831 22.4393C31.1763 22.2308 31.2936 21.7812 31.0851 21.4359C30.8766 21.0906 30.427 20.9733 30.0817 21.1818L21.605 26.2248L20.0022 25.2931L21.6376 24.3418C21.7027 24.3157 21.7614 24.2832 21.8135 24.2375L29.5474 19.7484C29.8992 19.5464 30.0165 19.0968 29.8145 18.745C29.6126 18.3931 29.163 18.2759 28.8111 18.4778L22.1002 22.3741V20.4846L27.5667 17.3376C27.9185 17.1356 28.0358 16.6861 27.8338 16.3342C27.6318 15.9824 27.1823 15.8651 26.8304 16.0671L22.0937 18.7971V17.0053L24.9409 15.4286C25.2928 15.2331 25.4231 14.7835 25.2276 14.4317C25.0322 14.0799 24.5826 13.9496 24.2307 14.145L22.0937 15.3308V13.5456C22.0937 13.1416 21.7679 12.8093 21.3574 12.8093C20.9469 12.8093 20.6212 13.1351 20.6212 13.5456V23.2342L19.2138 24.0551V13.2133C19.2138 12.8093 18.888 12.4771 18.4776 12.4771C18.0671 12.4771 17.7413 12.8028 17.7413 13.2133V20.5302L16.2036 19.6311V13.6564C16.2036 13.2524 15.8779 12.9201 15.4674 12.9201C15.0569 12.9201 14.7311 13.2459 14.7311 13.6564V18.771L13.1609 17.8523V14.7444C13.1609 14.3405 12.8351 14.0082 12.4246 14.0082C12.0142 14.0082 11.6884 14.334 11.6884 14.7444V16.9923L10.0986 16.0606C9.74677 15.8586 9.2972 15.9759 9.09522 16.3212C8.89324 16.673 9.01052 17.1226 9.35584 17.3246L11.962 18.8492C12.0207 18.8948 12.0858 18.9404 12.164 18.9665L15.0113 20.6345C15.0634 20.6736 15.1221 20.7127 15.1807 20.7322L17.7218 22.2243V23.9834L8.15047 18.4453C7.79863 18.2433 7.34906 18.3606 7.14708 18.7124C6.9451 19.0642 7.06238 19.5138 7.41422 19.7158L13.9949 23.5208L12.4051 24.4591L6.89298 21.1036C6.54766 20.8951 6.09809 20.9993 5.88307 21.3512C5.67458 21.6965 5.77883 22.1461 6.13066 22.3611L10.9717 25.3126L9.16689 26.3746L6.21537 24.5112C5.87004 24.2962 5.42047 24.4004 5.20546 24.7392C4.99045 25.0846 5.08818 25.5341 5.43351 25.7491L7.74651 27.2086L5.84398 28.3293C5.49214 28.5378 5.38138 28.9873 5.58336 29.3327C5.72019 29.5672 5.96778 29.691 6.21537 29.691C6.33916 29.691 6.46947 29.6584 6.58675 29.5868L15.4544 24.3679L17.0441 25.2865L6.9451 31.1505C6.59327 31.3525 6.47599 31.802 6.67797 32.1539C6.81479 32.3884 7.06238 32.5188 7.30997 32.5188C7.43377 32.5188 7.56408 32.4862 7.67484 32.421L14.7116 28.3358V40.3113C14.7116 40.7153 15.0374 41.0475 15.4478 41.0475C15.8583 41.0475 16.1841 40.7218 16.1841 40.3113V27.4823L17.7218 26.5896V42.1226C17.7218 42.5266 18.0475 42.8589 18.458 42.8589C18.8685 42.8589 19.1943 42.5331 19.1943 42.1226V26.531L20.8492 27.4888V40.3113C20.8492 40.7153 21.175 41.0475 21.5854 41.0475C21.9959 41.0475 22.3217 40.7218 22.3217 40.3113V28.3423L29.1434 32.2907C29.2607 32.3559 29.3845 32.3884 29.5083 32.3884C29.7624 32.3884 30.01 32.2581 30.1468 32.0236C30.3488 31.6717 30.2315 31.2222 29.8797 31.0202L23.0384 27.0653L24.537 26.1726L30.3618 29.5151C30.4791 29.5803 30.6029 29.6128 30.7267 29.6128C30.9808 29.6128 31.2284 29.4825 31.3652 29.2415C31.5672 28.8896 31.4434 28.44 31.0916 28.2381L25.9834 25.3126L27.3256 24.5112L30.7267 26.4789C30.844 26.544 30.9678 26.5766 31.0916 26.5766C31.3457 26.5766 31.5933 26.4463 31.7301 26.2117C31.9321 25.8599 31.8148 25.4103 31.463 25.2084H31.4825Z" fill="url(#paint0_linear_7134_30166)"/>
</g>
<defs>
<linearGradient id="paint0_linear_7134_30166" x1="18.7382" y1="8.56775" x2="17.8521" y2="68.2237" gradientUnits="userSpaceOnUse">
<stop stop-color="white"/>
<stop offset="1" stop-color="#70B34A"/>
</linearGradient>
<clipPath id="clip0_7134_30166">
<rect width="168.061" height="50" fill="white"/>
</clipPath>
</defs>
</svg>
